<?xml version="1.0" encoding="UTF-8"?>
<svg id="Layer_1" data-name="Layer 1" xmlns="http://www.w3.org/2000/svg" viewBox="0 0 187.78 166.08">
  <defs>
    <style>
      .cls-1 {
        fill: #f39c12;
      }

      .cls-2 {
        fill: #17283b;
      }

      .cls-3 {
        fill: #1fbbd2;
      }
    </style>
  </defs>
  <path class="cls-2" d="M72.07,136.27v29.17c.52-.07,1.03-.15,1.54-.24v-29.48c-.51.2-1.02.38-1.54.55ZM71.9,40.59c-2.89-.41-5.84-.62-8.84-.62C28.23,39.97,0,68.2,0,103.02s28.23,63.05,63.05,63.05c1.11,0,2.2-.03,3.29-.09v-28.38c-1.65.24-3.34.36-5.06.36-19.3,0-34.94-15.65-34.94-34.94s15.64-34.94,34.94-34.94c3.7,0,7.27.57,10.61,1.64.58.18,1.15.38,1.72.6v-29.47c-.57-.1-1.14-.19-1.72-.27Z"/>
  <path class="cls-3" d="M142.74,124.69l-35.26,34.63s-4.13,5.4-10.8,5.88h-24.46V0h18.43s8.74,3.02,8.74,7.62v111.35l26.41-24.65,4.56-4.26,12.39,34.63Z"/>
  <path class="cls-1" d="M112.25,124.77V34.83s1.79-6.31,7.98-2.74l66.6,59.45s3.22,5.48-2.14,7.74l-22.4,2.62s-2.86,1.67.71,6.2l9.89,19.54s3.1,4.41.24,6.55l-15.13,8.7s-4.65,1.67-6.55-1.19l-12.75-23.35s-1.83-3.69-5.8.36l-12.55,8.82s-5.48,4.17-8.1-2.74Z"/>
  <g>
    <rect class="cls-1" x="133.01" y="6.04" width="6.43" height="24.62" rx="2.98" ry="2.98"/>
    <rect class="cls-1" x="163.49" y="32.53" width="6.43" height="25.32" rx="2.98" ry="2.98" transform="translate(211.9 -121.52) rotate(90)"/>
    <rect class="cls-1" x="155.07" y="9.38" width="6.43" height="29.87" rx="2.98" ry="2.98" transform="translate(55.54 -98.53) rotate(41.36)"/>
  </g>
</svg> 